{"title":"The Straight Story 1999 DVD9rip English Klam","uid":6004417,"size":1892701711,"categoryP":"video","categoryS":"movies","magnet":"?xt=urn:btih:ceb709efb33cc0cd595dcb869aacec2a8de9169b&amp;dn=The+Straight+Story+1999+DVD9rip+English+Klam&amp;tr=udp%3A%2F%2Ftracker.openbittorrent.com%3A80&amp;tr=udp%3A%2F%2Fopen.demonii.com%3A1337&amp;tr=udp%3A%2F%2Ftracker.coppersurfer.tk%3A6969&amp;tr=udp%3A%2F%2Fexodus.desync.com%3A6969","seeders":1,"leechers":1,"uploader":"Klambake","files":-1,"time":1291279440,"description":"[img]http://img130.imageshack.us/img130/9352/thestraightstory.jpg[/img]\n\nWith: Richard Farnsworth, Sissy Spacek and Everett McGill\n\n&quot;The Straight Story&quot; chronicles a trip made by 73-year-old Alvin Straight from Laurens, Iowa, to Mt. Zion, Wis., in 1994 while riding a lawn mower. The man undertook his strange journey to mend his relationship with his ill, estranged, 75-year-old brother Lyle. \n\nGeneral:\n\nComplete name                    : The Straight\\Story.avi\nFormat                           : AVI\nFormat/Info                      : Audio Video Interleave\nFile size                        : 1.76 GiB\nDuration                         : 1h 47mn\nOverall bit rate                 : 2 352 Kbps\n\nVideo:\n\nFormat                           : MPEG-4 Visual\nFormat profile                   : Simple@L3\nFormat settings, BVOP            : No\nFormat settings, QPel            : No\nFormat settings, GMC             : No warppoints\nFormat settings, Matrix          : Default (H.263)\nCodec ID                         : XVID\nCodec ID/Hint                    : XviD\nDuration                         : 1h 47mn\nBit rate                         : 1 893 Kbps\nWidth                            : 720 pixels\nHeight                           : 576 pixels\nDisplay aspect ratio             : 5:4\nFrame rate                       : 25.000 fps\nStandard                         : PAL\nColor space                      : YUV\nChroma subsampling               : 4:2:0\nBit depth                        : 8 bits\nScan type                        : Progressive\nBits/(Pixel*Frame)               : 0.183\nStream size                      : 1.42 GiB (80%)\nWriting library                  : XviD 1.1.2 (UTC 2006-11-01)\n\nAudio:\n\nFormat                           : AC-3\nFormat/Info                      : Audio Coding 3\nMode extension                   : CM (complete main)\nCodec ID                         : 2000\nDuration                         : 1h 47mn\nBit rate mode                    : Constant\nBit rate                         : 448 Kbps\nChannel(s)                       : 6 channels\nChannel positions                : Front: L C R, Side: L R, LFE\nSampling rate                    : 48.0 KHz\nBit depth                        : 16 bits\nStream size                      : 344 MiB (19%)\nAlignment                        : Aligned on interleaves\nInterleave, duration             : 32 ms (0.80 video frame)\n","torrent":{"xt":"urn:btih:ceb709efb33cc0cd595dcb869aacec2a8de9169b","amp;dn":"The+Straight+Story+1999+DVD9rip+English+Klam","amp;tr":["udp%3A%2F%2Ftracker.openbittorrent.com%3A80","udp%3A%2F%2Fopen.demonii.com%3A1337","udp%3A%2F%2Ftracker.coppersurfer.tk%3A6969","udp%3A%2F%2Fexodus.desync.com%3A6969"],"infoHash":"ceb709efb33cc0cd595dcb869aacec2a8de9169b","infoHashBuffer":{"type":"Buffer","data":[206,183,9,239,179,60,192,205,89,93,203,134,154,172,236,42,141,233,22,155]},"announce":[],"urlList":[]}}